<svg xmlns="http://www.w3.org/2000/svg" xmlns:xlink="http://www.w3.org/1999/xlink" width="871pt" height="206pt" viewBox="0.00 0.00 871.00 206.00">
<g id="graph0" class="graph" transform="scale(1 1) rotate(0) translate(4 202)">
<title>G</title>
<polygon fill="white" stroke="none" points="-4,4 -4,-202 867.26,-202 867.26,4 -4,4"/>
<!-- data.dify_model_providers.all -->
<g id="node1" class="node">
<title>data.dify_model_providers.all</title>
<polygon fill="none" stroke="black" points="854.51,-36 669.78,-36 669.78,0 854.51,0 854.51,-36"/>
<text xml:space="preserve" text-anchor="middle" x="762.14" y="-13.8" font-family="sans-serif" font-size="14.00">data.dify_model_providers.all</text>
</g>
<!-- data.dify_plugins.all -->
<g id="node2" class="node">
<title>data.dify_plugins.all</title>
<polygon fill="none" stroke="black" points="827.69,-90 696.6,-90 696.6,-54 827.69,-54 827.69,-90"/>
<text xml:space="preserve" text-anchor="middle" x="762.14" y="-67.8" font-family="sans-serif" font-size="14.00">data.dify_plugins.all</text>
</g>
<!-- dify_app.my_workflow -->
<g id="node3" class="node">
<title>dify_app.my_workflow</title>
<polygon fill="none" stroke="black" points="623.48,-144 474.89,-144 474.89,-108 623.48,-108 623.48,-144"/>
<text xml:space="preserve" text-anchor="middle" x="549.19" y="-121.8" font-family="sans-serif" font-size="14.00">dify_app.my_workflow</text>
</g>
<!-- dify_model_provider_credential.openai -->
<g id="node7" class="node">
<title>dify_model_provider_credential.openai</title>
<polygon fill="none" stroke="black" points="437.35,-198 199.37,-198 199.37,-162 437.35,-162 437.35,-198"/>
<text xml:space="preserve" text-anchor="middle" x="318.36" y="-175.8" font-family="sans-serif" font-size="14.00">dify_model_provider_credential.openai</text>
</g>
<!-- dify_app.my_workflow&#45;&gt;dify_model_provider_credential.openai -->
<g id="edge1" class="edge">
<title>dify_app.my_workflow-&gt;dify_model_provider_credential.openai</title>
<path fill="none" stroke="black" d="M474.59,-144.08C462.16,-147.09 449.39,-150.15 437.35,-153 429.01,-154.97 420.33,-157 411.63,-159.01"/>
<polygon fill="black" stroke="black" points="411.06,-155.55 402.11,-161.22 412.64,-162.37 411.06,-155.55"/>
</g>
<!-- dify_tool_provider_credential.tavily -->
<g id="node10" class="node">
<title>dify_tool_provider_credential.tavily</title>
<polygon fill="none" stroke="black" points="428.02,-144 208.69,-144 208.69,-108 428.02,-108 428.02,-144"/>
<text xml:space="preserve" text-anchor="middle" x="318.36" y="-121.8" font-family="sans-serif" font-size="14.00">dify_tool_provider_credential.tavily</text>
</g>
<!-- dify_app.my_workflow&#45;&gt;dify_tool_provider_credential.tavily -->
<g id="edge2" class="edge">
<title>dify_app.my_workflow-&gt;dify_tool_provider_credential.tavily</title>
<path fill="none" stroke="black" d="M474.52,-126C463.34,-126 451.55,-126 439.68,-126"/>
<polygon fill="black" stroke="black" points="439.8,-122.5 429.8,-126 439.8,-129.5 439.8,-122.5"/>
</g>
<!-- dify_app_api_key.workflow_key -->
<g id="node4" class="node">
<title>dify_app_api_key.workflow_key</title>
<polygon fill="none" stroke="black" points="863.26,-144 661.03,-144 661.03,-108 863.26,-108 863.26,-144"/>
<text xml:space="preserve" text-anchor="middle" x="762.14" y="-121.8" font-family="sans-serif" font-size="14.00">dify_app_api_key.workflow_key</text>
</g>
<!-- dify_app_api_key.workflow_key&#45;&gt;dify_app.my_workflow -->
<g id="edge3" class="edge">
<title>dify_app_api_key.workflow_key-&gt;dify_app.my_workflow</title>
<path fill="none" stroke="black" d="M660.61,-126C652.07,-126 643.49,-126 635.09,-126"/>
<polygon fill="black" stroke="black" points="635.29,-122.5 625.29,-126 635.29,-129.5 635.29,-122.5"/>
</g>
<!-- dify_dataset.my_dataset -->
<g id="node5" class="node">
<title>dify_dataset.my_dataset</title>
<polygon fill="none" stroke="black" points="625.03,-198 473.35,-198 473.35,-162 625.03,-162 625.03,-198"/>
<text xml:space="preserve" text-anchor="middle" x="549.19" y="-175.8" font-family="sans-serif" font-size="14.00">dify_dataset.my_dataset</text>
</g>
<!-- dify_dataset.my_dataset&#45;&gt;dify_model_provider_credential.openai -->
<g id="edge4" class="edge">
<title>dify_dataset.my_dataset-&gt;dify_model_provider_credential.openai</title>
<path fill="none" stroke="black" d="M472.94,-180C465.24,-180 457.27,-180 449.19,-180"/>
<polygon fill="black" stroke="black" points="449.23,-176.5 439.23,-180 449.23,-183.5 449.23,-176.5"/>
</g>
<!-- dify_dataset_document.doc_text -->
<g id="node6" class="node">
<title>dify_dataset_document.doc_text</title>
<polygon fill="none" stroke="black" points="861.31,-198 662.97,-198 662.97,-162 861.31,-162 861.31,-198"/>
<text xml:space="preserve" text-anchor="middle" x="762.14" y="-175.8" font-family="sans-serif" font-size="14.00">dify_dataset_document.doc_text</text>
</g>
<!-- dify_dataset_document.doc_text&#45;&gt;dify_dataset.my_dataset -->
<g id="edge5" class="edge">
<title>dify_dataset_document.doc_text-&gt;dify_dataset.my_dataset</title>
<path fill="none" stroke="black" d="M662.77,-180C654.13,-180 645.42,-180 636.89,-180"/>
<polygon fill="black" stroke="black" points="636.89,-176.5 626.89,-180 636.89,-183.5 636.89,-176.5"/>
</g>
<!-- dify_plugin_install.openai -->
<g id="node8" class="node">
<title>dify_plugin_install.openai</title>
<polygon fill="none" stroke="black" points="163.37,-198 0,-198 0,-162 163.37,-162 163.37,-198"/>
<text xml:space="preserve" text-anchor="middle" x="81.68" y="-175.8" font-family="sans-serif" font-size="14.00">dify_plugin_install.openai</text>
</g>
<!-- dify_model_provider_credential.openai&#45;&gt;dify_plugin_install.openai -->
<g id="edge6" class="edge">
<title>dify_model_provider_credential.openai-&gt;dify_plugin_install.openai</title>
<path fill="none" stroke="black" d="M198.99,-180C190.95,-180 182.92,-180 175.05,-180"/>
<polygon fill="black" stroke="black" points="175.16,-176.5 165.16,-180 175.16,-183.5 175.16,-176.5"/>
</g>
<!-- dify_plugin_install.tavily -->
<g id="node9" class="node">
<title>dify_plugin_install.tavily</title>
<polygon fill="none" stroke="black" points="160.65,-144 2.72,-144 2.72,-108 160.65,-108 160.65,-144"/>
<text xml:space="preserve" text-anchor="middle" x="81.68" y="-121.8" font-family="sans-serif" font-size="14.00">dify_plugin_install.tavily</text>
</g>
<!-- dify_tool_provider_credential.tavily&#45;&gt;dify_plugin_install.tavily -->
<g id="edge7" class="edge">
<title>dify_tool_provider_credential.tavily-&gt;dify_plugin_install.tavily</title>
<path fill="none" stroke="black" d="M208.27,-126C196.2,-126 184.02,-126 172.24,-126"/>
<polygon fill="black" stroke="black" points="172.59,-122.5 162.59,-126 172.59,-129.5 172.59,-122.5"/>
</g>
</g>
</svg>